<?xml version="1.0" standalone="no"?>
<!DOCTYPE svg PUBLIC "-//W3C//DTD SVG 20010904//EN"
 "http://www.w3.org/TR/2001/REC-SVG-20010904/DTD/svg10.dtd">
<svg version="1.0" xmlns="http://www.w3.org/2000/svg"
 width="512.000000pt" height="512.000000pt" viewBox="0 0 512.000000 512.000000"
 preserveAspectRatio="xMidYMid meet">

<g transform="translate(0.000000,512.000000) scale(0.100000,-0.100000)"
fill="#000000" stroke="none">
<path d="M3351 4687 c-55 -96 -101 -178 -101 -184 0 -5 15 -16 33 -25 96 -47
270 -190 379 -313 221 -250 373 -565 423 -875 21 -134 22 -370 1 -510 -107
-710 -636 -1279 -1330 -1429 -483 -105 -1007 19 -1411 334 -108 84 -266 251
-342 360 -34 50 -68 99 -76 109 -13 19 -21 15 -178 -77 -90 -53 -170 -101
-178 -106 -18 -12 24 -86 127 -225 290 -390 723 -678 1192 -795 69 -17 166
-37 215 -44 l90 -12 3 -108 3 -107 -536 0 -535 0 0 -210 0 -210 1280 0 1280 0
0 210 0 210 -545 0 -546 0 3 107 3 106 130 22 c240 41 395 90 600 190 620 300
1040 867 1161 1565 25 141 30 442 10 598 -33 253 -94 457 -206 687 -169 347
-421 634 -744 847 -48 32 -92 58 -96 58 -4 0 -53 -78 -109 -173z"/>
<path d="M2175 4505 c-212 -34 -438 -125 -617 -247 -120 -81 -295 -256 -376
-376 -186 -272 -271 -570 -259 -907 9 -240 53 -417 154 -619 55 -109 80 -148
159 -251 232 -301 596 -507 980 -556 121 -15 391 -6 494 16 307 68 541 194
756 409 215 215 341 449 409 756 22 103 31 373 16 494 -79 626 -547 1133
-1169 1267 -129 27 -417 35 -547 14z"/>
</g>
</svg>
