<?xml version="1.0" encoding="UTF-8" standalone="no"?>
<svg width="15px" height="15px" viewBox="0 0 15 15" version="1.1" xmlns="http://www.w3.org/2000/svg" xmlns:xlink="http://www.w3.org/1999/xlink">
    <path d="M0,5.7198 C0,8.8738 2.566,11.4388 5.72,11.4388 C6.953,11.4388 8.096,11.0458 9.031,10.3788 L12.673,14.0208 C12.859,14.2068 13.103,14.2998 13.346,14.2998 C13.59,14.2998 13.835,14.2068 14.021,14.0208 C14.392,13.6488 14.392,13.0448 14.021,12.6718 L10.379,9.0318 C11.046,8.0958 11.439,6.9528 11.439,5.7198 C11.439,2.5658 8.874,-0.0002 5.72,-0.0002 C2.566,-0.0002 0,2.5658 0,5.7198 Z M1.907,5.7198 C1.907,3.6138 3.614,1.9068 5.72,1.9068 C7.826,1.9068 9.533,3.6138 9.533,5.7198 C9.533,7.8268 7.826,9.5328 5.72,9.5328 C3.614,9.5328 1.907,7.8268 1.907,5.7198 Z" id="path-1"></path>
    <g id="Page-1" stroke="none" stroke-width="1" fill="none" fill-rule="evenodd">
        <g id="Global-Nav-Mobile" transform="translate(-270.000000, -793.000000)">
            <g id="Buttons/Buttons-regular/Primary/Idle-Copy-2" transform="translate(15.000000, 780.000000)">
                <g id="Search-Icon" transform="translate(255.000000, 13.000000)">
                    <mask id="mask-2" fill="white">
                        <use xlink:href="#path-1"></use>
                    </mask>
                    <g id="Clip-2"></g>
                </g>
            </g>
        </g>
    </g>
</svg>
